<svg data-v-423bf9ae="" xmlns="http://www.w3.org/2000/svg" viewBox="0 0 372 90" class="iconLeft"><!----><!----><!----><g data-v-423bf9ae="" id="0097df1e-29ac-4e31-b3a2-9980b81f6868" fill="black" transform="matrix(4.938271759983636,0,0,4.938271759983636,131.45573281088355,4.6296302518218155)"><path d="M5.25 2.10C2.44 2.10 0.55 4.21 0.55 6.85C0.55 9.48 2.44 11.59 5.25 11.59C8.06 11.59 9.95 9.48 9.95 6.85C9.95 4.21 8.06 2.10 5.25 2.10ZM5.25 10.57C3.00 10.57 1.60 8.93 1.60 6.85C1.60 4.76 3.00 3.12 5.25 3.12C7.50 3.12 8.90 4.76 8.90 6.85C8.90 8.93 7.50 10.57 5.25 10.57ZM14.97 11.59C17.01 11.59 18.35 9.98 18.35 7.98C18.35 5.98 17.01 4.37 14.97 4.37C13.80 4.37 12.98 4.84 12.46 5.60L12.46 4.48L11.41 4.48L11.41 14.25L12.46 14.25L12.46 10.35C12.98 11.10 13.80 11.59 14.97 11.59ZM14.83 5.32C16.38 5.32 17.30 6.54 17.30 7.98C17.30 9.42 16.38 10.64 14.83 10.64C13.27 10.64 12.40 9.42 12.40 7.98C12.40 6.54 13.27 5.32 14.83 5.32ZM22.85 10.64C21.43 10.64 20.52 9.65 20.37 8.40L26.24 8.40L26.24 7.98C26.24 5.98 24.91 4.37 22.76 4.37C20.62 4.37 19.29 5.98 19.29 7.98C19.29 9.98 20.69 11.59 22.83 11.59C24.50 11.59 25.54 10.72 26.03 9.46L24.88 9.46C24.50 10.16 23.83 10.64 22.85 10.64ZM22.76 5.32C24.11 5.32 24.95 6.23 25.14 7.42L20.38 7.42C20.58 6.23 21.42 5.32 22.76 5.32ZM27.52 4.48L27.52 11.48L28.57 11.48L28.57 7.45C28.57 6.19 29.53 5.32 30.69 5.32C31.84 5.32 32.65 6.16 32.65 7.43L32.65 11.48L33.70 11.48L33.70 7.41C33.70 5.42 32.34 4.37 30.90 4.37C29.76 4.37 29.08 4.90 28.57 5.57L28.57 4.48ZM39.70 2.21L38.65 2.21L38.65 11.48L39.70 11.48ZM48.55 2.21L41.03 2.21L41.03 3.22L44.27 3.22L44.27 11.48L45.32 11.48L45.32 3.22L48.55 3.22Z"></path></g><!----><g data-v-423bf9ae="" id="ef8c18b6-b2e5-443e-99f0-4f9898af01e3" transform="matrix(1.1563147251609767,0,0,1.1563147251609767,-1.2832130535659445,-11.657390670945269)" stroke="none" fill="black"><path d="M39.155 48.586s-19.267-1.801-9.147-13.734C40.122 22.92 39.2 21.557 39.2 21.557s5.079-16.006 6.459-9.322c1.37 6.685 10.837 22.737 10.837 22.737s-.024 1.435 1.471.721c1.488-.718 2.962-.836 6.745-4.845 3.788-4.019 9.154-.985 9.154-.985s4.957-1.711 5.519-1.553c.563.159-3.903 2.538-4.42 3.304-.52.761-3.245 7.729-3.106 9.665.132 1.933-3.091 6.937-4.01 7.208 0 0 8.862 4.627 10.527 8.658 0 0 8.979 5.264 10.146 9.465 1.173 4.195 18.996 15.741 7.799 20.47-11.189 4.733-28.113-4.365-29.362-5.319-1.239-.957-15.848-8.874-20.825-9.516-4.971-.646-7.331-5.709-4.055-11.687 0 0-5.225-.037-6.126.468-.904.504-14.253 13.422-15.281 14.12-1.034.694-13.442 12.968-18.24 4.185C-2.371 70.54 9.17 67.275 9.17 67.275s19.249-8.296 22.304-11.073c3.053-2.776 7.681-7.616 7.681-7.616z"></path></g><!----></svg>